<svg width="36" height="33" viewBox="0 0 36 33" fill="red" xmlns="http://www.w3.org/2000/svg">
<path fill-rule="evenodd" clip-rule="evenodd" d="M31.3392 11.9854C30.2411 11.3365 29.0744 10.9497 27.8889 10.7438C28.2633 9.63948 28.5128 8.47276 28.5128 7.2374C28.5128 4.67935 27.6082 2.19616 25.9548 0.237057C25.7988 0.0498824 25.543 0.00620825 25.3309 0.124752C25.125 0.243297 25.0314 0.499103 25.1062 0.729952C25.387 1.59096 25.518 2.37085 25.518 3.13203C25.518 7.36219 22.1614 10.8 18.031 10.8C13.9007 10.8 10.544 7.36219 10.544 3.13203C10.544 2.37709 10.6813 1.59096 10.9558 0.729952C11.0307 0.499103 10.9371 0.243297 10.7312 0.124752C10.5191 0.00620825 10.2633 0.0498824 10.1073 0.237057C8.46015 2.19616 7.54923 4.67935 7.54923 7.2374C7.54923 8.47276 7.79255 9.63948 8.17314 10.7438C6.99394 10.9497 5.82098 11.3365 4.72288 11.9854C2.56413 13.2644 0.916992 15.3109 0.0871824 17.7504C0.00607319 17.9813 0.0996607 18.2308 0.305553 18.3618C0.511446 18.4866 0.773491 18.443 0.92947 18.262C1.51595 17.5882 2.11491 17.0703 2.75131 16.696C6.32635 14.5809 10.9121 15.8412 12.9773 19.5036C15.0425 23.166 13.8134 27.8641 10.2383 29.9792C9.60191 30.3598 8.86569 30.628 8.00469 30.8152C7.77384 30.8651 7.60538 31.0773 7.60538 31.3206C7.61162 31.5702 7.77384 31.7761 8.01093 31.8197C10.4879 32.3064 13.0397 31.8696 15.1984 30.5906C16.3215 29.9293 17.2511 29.062 18.0248 28.0887C18.7984 29.062 19.7281 29.9293 20.8511 30.5906C23.0099 31.8696 25.5617 32.3064 28.0387 31.8197C28.2757 31.7761 28.438 31.5702 28.4442 31.3206C28.4442 31.0773 28.282 30.8651 28.0449 30.8152C27.1777 30.6343 26.4477 30.3598 25.8113 29.9792C22.2362 27.8641 21.0071 23.166 23.0723 19.5036C25.1374 15.8412 29.7232 14.5809 33.2983 16.696C33.9347 17.0766 34.5336 17.5882 35.1201 18.262C35.2761 18.443 35.5381 18.4866 35.744 18.3618C35.9499 18.2371 36.0435 17.9813 35.9624 17.7504C35.1451 15.3109 33.4979 13.2582 31.3392 11.9854ZM18.0248 7.05023C19.1853 7.05023 20.2834 7.28732 21.3191 7.64919C22.1489 7.00655 22.7915 6.13307 23.1596 5.10985C21.5874 4.42978 19.8529 4.04919 18.031 4.04919C16.2154 4.04919 14.4809 4.42354 12.9087 5.10361C13.2768 6.12683 13.9194 7.00032 14.7492 7.64295C15.7787 7.28732 16.8705 7.05023 18.0248 7.05023ZM10.2695 27.4336C11.0182 26.6974 11.5423 25.7865 11.7981 24.7882C9.74541 23.141 8.37904 20.714 8.12323 17.9501C7.5929 17.7754 7.05009 17.6631 6.47609 17.6631C6.00191 17.6631 5.52774 17.7254 5.07228 17.8565C5.32808 21.7747 7.3059 25.2187 10.2695 27.4336ZM25.7863 27.4274C25.0376 26.6911 24.5135 25.774 24.2577 24.7757C26.2979 23.1286 27.6643 20.714 27.9201 17.9563C28.4567 17.7816 29.0057 17.6631 29.5797 17.6631C30.0477 17.6631 30.5156 17.7254 30.9648 17.8502C30.7215 21.7684 28.7437 25.2124 25.7863 27.4274ZM15.03 17.0391C15.03 18.6925 16.3714 20.0339 18.0248 20.0339C19.6782 20.0339 21.0196 18.6925 21.0196 17.0391C21.0196 15.3858 19.6782 14.0443 18.0248 14.0443C16.3714 14.0443 15.03 15.3858 15.03 17.0391Z" fill="white"/>
</svg>
